<svg width="110" height="26" viewBox="0 0 110 26" fill="none" xmlns="http://www.w3.org/2000/svg">
<rect x="0.75" y="0.25" width="108.5" height="25.5" rx="3.75" fill="#393939"/>
<rect x="0.75" y="0.25" width="108.5" height="25.5" rx="3.75" stroke="#DEDEDE" stroke-width="0.5"/>
<path d="M23.75 10.7501L15.875 19.3751M15.875 6.62515L23.75 15.2501M15.5 6.78265V19.2176C15.5 19.3098 15.5243 19.4003 15.5704 19.4801C15.6165 19.5599 15.6828 19.6261 15.7626 19.6722C15.8424 19.7182 15.9329 19.7425 16.025 19.7425C16.1172 19.7425 16.2077 19.7182 16.2875 19.6721L27.254 13.3571C27.3168 13.321 27.3689 13.2689 27.4052 13.2061C27.4414 13.1434 27.4605 13.0722 27.4605 12.9998C27.4605 12.9273 27.4414 12.8561 27.4052 12.7934C27.3689 12.7307 27.3168 12.6786 27.254 12.6424L16.2875 6.32815C16.2076 6.28205 16.1171 6.25779 16.0249 6.25781C15.9326 6.25784 15.8421 6.28215 15.7622 6.3283C15.6824 6.37444 15.6162 6.4408 15.5701 6.52069C15.5241 6.60059 15.4999 6.69044 15.5 6.78265Z" stroke="#F5F5F5" stroke-width="1.2" stroke-linecap="round" stroke-linejoin="round"/>
<path d="M37.026 9.048C36.702 9.048 36.404 8.996 36.132 8.892C35.86 8.784 35.624 8.634 35.424 8.442C35.224 8.246 35.068 8.018 34.956 7.758C34.844 7.498 34.788 7.212 34.788 6.9C34.788 6.588 34.844 6.302 34.956 6.042C35.068 5.782 35.224 5.556 35.424 5.364C35.628 5.168 35.866 5.018 36.138 4.914C36.41 4.806 36.71 4.752 37.038 4.752C37.37 4.752 37.674 4.806 37.95 4.914C38.226 5.022 38.46 5.184 38.652 5.4L38.28 5.772C38.108 5.604 37.92 5.482 37.716 5.406C37.516 5.326 37.298 5.286 37.062 5.286C36.822 5.286 36.598 5.326 36.39 5.406C36.186 5.486 36.008 5.598 35.856 5.742C35.708 5.886 35.592 6.058 35.508 6.258C35.428 6.454 35.388 6.668 35.388 6.9C35.388 7.128 35.428 7.342 35.508 7.542C35.592 7.738 35.708 7.91 35.856 8.058C36.008 8.202 36.186 8.314 36.39 8.394C36.594 8.474 36.816 8.514 37.056 8.514C37.28 8.514 37.494 8.48 37.698 8.412C37.906 8.34 38.098 8.222 38.274 8.058L38.616 8.514C38.408 8.69 38.164 8.824 37.884 8.916C37.608 9.004 37.322 9.048 37.026 9.048ZM38.04 8.436V6.876H38.616V8.514L38.04 8.436ZM40.3108 6.612H42.4708V7.122H40.3108V6.612ZM40.3648 8.478H42.8128V9H39.7648V4.8H42.7288V5.322H40.3648V8.478ZM44.6183 9V5.322H43.1783V4.8H46.6523V5.322H45.2123V9H44.6183ZM48.9171 9V4.8H49.5171V9H48.9171ZM50.7745 9V4.8H51.2665L54.0445 8.25H53.7865V4.8H54.3865V9H53.8945L51.1165 5.55H51.3745V9H50.7745ZM59.151 9.048C58.831 9.048 58.533 8.994 58.257 8.886C57.985 8.778 57.749 8.628 57.549 8.436C57.349 8.24 57.193 8.012 57.081 7.752C56.969 7.492 56.913 7.208 56.913 6.9C56.913 6.592 56.969 6.308 57.081 6.048C57.193 5.788 57.349 5.562 57.549 5.37C57.749 5.174 57.985 5.022 58.257 4.914C58.529 4.806 58.827 4.752 59.151 4.752C59.471 4.752 59.765 4.806 60.033 4.914C60.305 5.018 60.541 5.168 60.741 5.364C60.945 5.556 61.101 5.782 61.209 6.042C61.321 6.302 61.377 6.588 61.377 6.9C61.377 7.212 61.321 7.498 61.209 7.758C61.101 8.018 60.945 8.246 60.741 8.442C60.541 8.634 60.305 8.784 60.033 8.892C59.765 8.996 59.471 9.048 59.151 9.048ZM59.151 8.514C59.383 8.514 59.597 8.474 59.793 8.394C59.993 8.314 60.165 8.202 60.309 8.058C60.457 7.91 60.571 7.738 60.651 7.542C60.735 7.346 60.777 7.132 60.777 6.9C60.777 6.668 60.735 6.454 60.651 6.258C60.571 6.062 60.457 5.892 60.309 5.748C60.165 5.6 59.993 5.486 59.793 5.406C59.597 5.326 59.383 5.286 59.151 5.286C58.915 5.286 58.697 5.326 58.497 5.406C58.301 5.486 58.129 5.6 57.981 5.748C57.833 5.892 57.717 6.062 57.633 6.258C57.553 6.454 57.513 6.668 57.513 6.9C57.513 7.132 57.553 7.346 57.633 7.542C57.717 7.738 57.833 7.91 57.981 8.058C58.129 8.202 58.301 8.314 58.497 8.394C58.697 8.474 58.915 8.514 59.151 8.514ZM62.2941 9V4.8H62.7861L65.5641 8.25H65.3061V4.8H65.9061V9H65.4141L62.6361 5.55H62.8941V9H62.2941Z" fill="#DEDEDE"/>
<path d="M35.628 20V11.6H39.084C39.828 11.6 40.464 11.72 40.992 11.96C41.528 12.2 41.94 12.544 42.228 12.992C42.516 13.44 42.66 13.972 42.66 14.588C42.66 15.204 42.516 15.736 42.228 16.184C41.94 16.632 41.528 16.976 40.992 17.216C40.464 17.456 39.828 17.576 39.084 17.576H36.492L37.188 16.844V20H35.628ZM37.188 17.012L36.492 16.256H39.012C39.7 16.256 40.216 16.112 40.56 15.824C40.912 15.528 41.088 15.116 41.088 14.588C41.088 14.052 40.912 13.64 40.56 13.352C40.216 13.064 39.7 12.92 39.012 12.92H36.492L37.188 12.152V17.012ZM44.191 20V11.096H45.691V20H44.191ZM51.6078 20V18.704L51.5238 18.428V16.16C51.5238 15.72 51.3918 15.38 51.1278 15.14C50.8638 14.892 50.4638 14.768 49.9278 14.768C49.5678 14.768 49.2118 14.824 48.8598 14.936C48.5158 15.048 48.2238 15.204 47.9838 15.404L47.3958 14.312C47.7398 14.048 48.1478 13.852 48.6198 13.724C49.0998 13.588 49.5958 13.52 50.1078 13.52C51.0358 13.52 51.7518 13.744 52.2558 14.192C52.7678 14.632 53.0238 15.316 53.0238 16.244V20H51.6078ZM49.5918 20.084C49.1118 20.084 48.6918 20.004 48.3318 19.844C47.9718 19.676 47.6918 19.448 47.4918 19.16C47.2998 18.864 47.2038 18.532 47.2038 18.164C47.2038 17.804 47.2878 17.48 47.4558 17.192C47.6318 16.904 47.9158 16.676 48.3078 16.508C48.6998 16.34 49.2198 16.256 49.8678 16.256H51.7278V17.252H49.9758C49.4638 17.252 49.1198 17.336 48.9438 17.504C48.7678 17.664 48.6798 17.864 48.6798 18.104C48.6798 18.376 48.7878 18.592 49.0038 18.752C49.2198 18.912 49.5198 18.992 49.9038 18.992C50.2718 18.992 50.5998 18.908 50.8878 18.74C51.1838 18.572 51.3958 18.324 51.5238 17.996L51.7758 18.896C51.6318 19.272 51.3718 19.564 50.9958 19.772C50.6278 19.98 50.1598 20.084 49.5918 20.084ZM55.3597 22.412C55.0477 22.412 54.7357 22.36 54.4237 22.256C54.1117 22.152 53.8517 22.008 53.6437 21.824L54.2437 20.72C54.3957 20.856 54.5677 20.964 54.7597 21.044C54.9517 21.124 55.1477 21.164 55.3477 21.164C55.6197 21.164 55.8397 21.096 56.0077 20.96C56.1757 20.824 56.3317 20.596 56.4757 20.276L56.8477 19.436L56.9677 19.256L59.3917 13.592H60.8317L57.8317 20.516C57.6317 20.996 57.4077 21.376 57.1597 21.656C56.9197 21.936 56.6477 22.132 56.3437 22.244C56.0477 22.356 55.7197 22.412 55.3597 22.412ZM56.6797 20.228L53.7877 13.592H55.3477L57.6997 19.124L56.6797 20.228ZM67.8336 20.12C67.1776 20.12 66.5496 20.028 65.9496 19.844C65.3496 19.652 64.8736 19.408 64.5216 19.112L65.0616 17.9C65.3976 18.164 65.8136 18.384 66.3096 18.56C66.8056 18.736 67.3136 18.824 67.8336 18.824C68.2736 18.824 68.6296 18.776 68.9016 18.68C69.1736 18.584 69.3736 18.456 69.5016 18.296C69.6296 18.128 69.6936 17.94 69.6936 17.732C69.6936 17.476 69.6016 17.272 69.4176 17.12C69.2336 16.96 68.9936 16.836 68.6976 16.748C68.4096 16.652 68.0856 16.564 67.7256 16.484C67.3736 16.404 67.0176 16.312 66.6576 16.208C66.3056 16.096 65.9816 15.956 65.6856 15.788C65.3976 15.612 65.1616 15.38 64.9776 15.092C64.7936 14.804 64.7016 14.436 64.7016 13.988C64.7016 13.532 64.8216 13.116 65.0616 12.74C65.3096 12.356 65.6816 12.052 66.1776 11.828C66.6816 11.596 67.3176 11.48 68.0856 11.48C68.5896 11.48 69.0896 11.544 69.5856 11.672C70.0816 11.8 70.5136 11.984 70.8816 12.224L70.3896 13.436C70.0136 13.212 69.6256 13.048 69.2256 12.944C68.8256 12.832 68.4416 12.776 68.0736 12.776C67.6416 12.776 67.2896 12.828 67.0176 12.932C66.7536 13.036 66.5576 13.172 66.4296 13.34C66.3096 13.508 66.2496 13.7 66.2496 13.916C66.2496 14.172 66.3376 14.38 66.5136 14.54C66.6976 14.692 66.9336 14.812 67.2216 14.9C67.5176 14.988 67.8456 15.076 68.2056 15.164C68.5656 15.244 68.9216 15.336 69.2736 15.44C69.6336 15.544 69.9576 15.68 70.2456 15.848C70.5416 16.016 70.7776 16.244 70.9536 16.532C71.1376 16.82 71.2296 17.184 71.2296 17.624C71.2296 18.072 71.1056 18.488 70.8576 18.872C70.6176 19.248 70.2456 19.552 69.7416 19.784C69.2376 20.008 68.6016 20.12 67.8336 20.12ZM75.0444 20.084C74.3404 20.084 73.7964 19.904 73.4124 19.544C73.0284 19.176 72.8364 18.636 72.8364 17.924V12.176H74.3364V17.888C74.3364 18.192 74.4124 18.428 74.5644 18.596C74.7244 18.764 74.9444 18.848 75.2244 18.848C75.5604 18.848 75.8404 18.76 76.0644 18.584L76.4844 19.652C76.3084 19.796 76.0924 19.904 75.8364 19.976C75.5804 20.048 75.3164 20.084 75.0444 20.084ZM71.7804 14.84V13.64H76.0524V14.84H71.7804ZM80.3874 20.084C79.7314 20.084 79.1474 19.944 78.6354 19.664C78.1234 19.376 77.7194 18.984 77.4234 18.488C77.1274 17.992 76.9794 17.428 76.9794 16.796C76.9794 16.156 77.1274 15.592 77.4234 15.104C77.7194 14.608 78.1234 14.22 78.6354 13.94C79.1474 13.66 79.7314 13.52 80.3874 13.52C81.0514 13.52 81.6394 13.66 82.1514 13.94C82.6714 14.22 83.0754 14.604 83.3634 15.092C83.6594 15.58 83.8074 16.148 83.8074 16.796C83.8074 17.428 83.6594 17.992 83.3634 18.488C83.0754 18.984 82.6714 19.376 82.1514 19.664C81.6394 19.944 81.0514 20.084 80.3874 20.084ZM80.3874 18.8C80.7554 18.8 81.0834 18.72 81.3714 18.56C81.6594 18.4 81.8834 18.168 82.0434 17.864C82.2114 17.56 82.2954 17.204 82.2954 16.796C82.2954 16.38 82.2114 16.024 82.0434 15.728C81.8834 15.424 81.6594 15.192 81.3714 15.032C81.0834 14.872 80.7594 14.792 80.3994 14.792C80.0314 14.792 79.7034 14.872 79.4154 15.032C79.1354 15.192 78.9114 15.424 78.7434 15.728C78.5754 16.024 78.4914 16.38 78.4914 16.796C78.4914 17.204 78.5754 17.56 78.7434 17.864C78.9114 18.168 79.1354 18.4 79.4154 18.56C79.7034 18.72 80.0274 18.8 80.3874 18.8ZM85.2418 20V13.592H86.6698V15.356L86.5018 14.84C86.6938 14.408 86.9938 14.08 87.4018 13.856C87.8178 13.632 88.3338 13.52 88.9498 13.52V14.948C88.8858 14.932 88.8258 14.924 88.7698 14.924C88.7138 14.916 88.6578 14.912 88.6018 14.912C88.0338 14.912 87.5818 15.08 87.2458 15.416C86.9098 15.744 86.7418 16.236 86.7418 16.892V20H85.2418ZM93.1757 20.084C92.4637 20.084 91.8397 19.944 91.3037 19.664C90.7757 19.376 90.3637 18.984 90.0677 18.488C89.7797 17.992 89.6357 17.428 89.6357 16.796C89.6357 16.156 89.7757 15.592 90.0557 15.104C90.3437 14.608 90.7357 14.22 91.2317 13.94C91.7357 13.66 92.3077 13.52 92.9477 13.52C93.5717 13.52 94.1277 13.656 94.6157 13.928C95.1037 14.2 95.4877 14.584 95.7677 15.08C96.0477 15.576 96.1877 16.16 96.1877 16.832C96.1877 16.896 96.1837 16.968 96.1757 17.048C96.1757 17.128 96.1717 17.204 96.1637 17.276H90.8237V16.28H95.3717L94.7837 16.592C94.7917 16.224 94.7157 15.9 94.5557 15.62C94.3957 15.34 94.1757 15.12 93.8957 14.96C93.6237 14.8 93.3077 14.72 92.9477 14.72C92.5797 14.72 92.2557 14.8 91.9757 14.96C91.7037 15.12 91.4877 15.344 91.3277 15.632C91.1757 15.912 91.0997 16.244 91.0997 16.628V16.868C91.0997 17.252 91.1877 17.592 91.3637 17.888C91.5397 18.184 91.7877 18.412 92.1077 18.572C92.4277 18.732 92.7957 18.812 93.2117 18.812C93.5717 18.812 93.8957 18.756 94.1837 18.644C94.4717 18.532 94.7277 18.356 94.9517 18.116L95.7557 19.04C95.4677 19.376 95.1037 19.636 94.6637 19.82C94.2317 19.996 93.7357 20.084 93.1757 20.084Z" fill="#DEDEDE"/>
</svg>
