<svg width="32" height="32" viewBox="0 0 32 32" fill="none" xmlns="http://www.w3.org/2000/svg">
<path d="M20.6002 9.82C19.9167 9.03953 19.5401 8.0374 19.5402 7H16.4502V19.4C16.4268 20.0712 16.1437 20.7071 15.6605 21.1735C15.1773 21.6399 14.5318 21.9004 13.8602 21.9C12.4402 21.9 11.2602 20.74 11.2602 19.3C11.2602 17.58 12.9202 16.29 14.6302 16.82V13.66C11.1802 13.2 8.16016 15.88 8.16016 19.3C8.16016 22.63 10.9202 25 13.8502 25C16.9902 25 19.5402 22.45 19.5402 19.3V13.01C20.7932 13.9099 22.2975 14.3926 23.8402 14.39V11.3C23.8402 11.3 21.9602 11.39 20.6002 9.82Z" fill="#DEDEDE"/>
</svg>
